<svg preserveAspectRatio="none" width="100%" height="100%" overflow="visible" style="display: block;" viewBox="0 0 1539 1276.8" fill="none" xmlns="http://www.w3.org/2000/svg">
<g id="Icon" opacity="0.35" clip-path="url(#clip0_0_4)">
<path id="Vector" d="M-21.375 226.987H448.875L502.313 297.92H812.25L865.688 226.987H1560.38" stroke="var(--stroke-0, #1F6BFF)" stroke-opacity="0.35" stroke-width="1.72388"/>
<path id="Vector_2" d="M-21.375 879.573H384.75L438.188 808.64H961.875L1026 893.76H1560.38" stroke="var(--stroke-0, #22D3EE)" stroke-opacity="0.4" stroke-width="1.72388"/>
<path id="Vector_3" d="M502.313 303.595C504.674 303.595 506.588 301.054 506.588 297.92C506.588 294.786 504.674 292.245 502.313 292.245C499.951 292.245 498.038 294.786 498.038 297.92C498.038 301.054 499.951 303.595 502.313 303.595Z" fill="var(--fill-0, #1F6BFF)"/>
<path id="Vector_4" d="M865.687 232.661C868.048 232.661 869.962 230.121 869.962 226.987C869.962 223.853 868.048 221.312 865.687 221.312C863.326 221.312 861.412 223.853 861.412 226.987C861.412 230.121 863.326 232.661 865.687 232.661Z" fill="var(--fill-0, #22D3EE)"/>
<path id="Vector_5" d="M438.188 814.315C440.549 814.315 442.463 811.774 442.463 808.64C442.463 805.506 440.549 802.965 438.188 802.965C435.826 802.965 433.913 805.506 433.913 808.64C433.913 811.774 435.826 814.315 438.188 814.315Z" fill="var(--fill-0, #22D3EE)"/>
<path id="Vector_6" d="M1026 899.435C1028.36 899.435 1030.27 896.894 1030.27 893.76C1030.27 890.626 1028.36 888.085 1026 888.085C1023.64 888.085 1021.72 890.626 1021.72 893.76C1021.72 896.894 1023.64 899.435 1026 899.435Z" fill="var(--fill-0, #1F6BFF)"/>
</g>
<defs>
<clipPath id="clip0_0_4">
<rect width="1539" height="1276.8" fill="white"/>
</clipPath>
</defs>
</svg>
