<?xml version="1.0" standalone="no"?>
<!DOCTYPE svg PUBLIC "-//W3C//DTD SVG 20010904//EN"
 "http://www.w3.org/TR/2001/REC-SVG-20010904/DTD/svg10.dtd">
<svg version="1.0" xmlns="http://www.w3.org/2000/svg"
 width="740.000000pt" height="740.000000pt" viewBox="0 0 740.000000 740.000000"
 preserveAspectRatio="xMidYMid meet">

<g transform="translate(0.000000,740.000000) scale(0.100000,-0.100000)"
fill="#000000" stroke="none">
<path d="M2455 6863 c-77 -40 -81 -41 -100 -27 -23 17 -43 18 -27 2 23 -23 12
-28 -58 -28 -49 0 -70 -4 -70 -12 -1 -20 -57 -77 -86 -88 -21 -8 -25 -15 -20
-33 3 -12 6 -27 6 -34 0 -6 22 -14 49 -18 36 -5 50 -12 54 -26 3 -10 16 -23
30 -28 14 -5 28 -14 31 -19 3 -5 17 -7 31 -4 25 4 35 -11 15 -23 -19 -12 -10
-32 23 -46 26 -11 32 -20 32 -44 0 -25 -6 -33 -37 -47 -21 -10 -38 -23 -38
-28 0 -6 -9 -10 -19 -10 -27 0 -30 -17 -20 -101 4 -41 8 -105 9 -144 0 -78 5
-89 40 -105 14 -5 45 -22 69 -35 24 -14 52 -25 63 -25 13 0 18 -7 18 -29 0
-30 14 -41 52 -41 11 0 36 -10 55 -21 l34 -21 37 29 c31 26 37 37 37 69 0 28
4 39 15 39 8 0 20 6 26 14 6 8 16 11 22 7 7 -4 12 -1 12 8 0 42 98 41 125 0 8
-13 32 -31 52 -39 32 -14 39 -14 59 0 34 22 41 19 66 -25 25 -43 29 -45 60
-29 17 9 24 8 32 -3 8 -11 18 -13 35 -6 25 9 51 -4 51 -27 0 -7 6 -18 14 -24
11 -9 17 -8 29 4 9 8 20 15 26 15 6 0 11 5 11 10 0 6 8 10 19 10 10 0 24 7 31
15 10 12 8 19 -8 40 -15 19 -19 35 -15 60 5 32 4 34 -32 41 -45 8 -70 48 -43
68 14 10 14 15 1 40 -21 39 -12 53 34 51 41 -1 63 18 74 65 3 14 11 24 17 22
7 -1 17 9 22 23 5 14 16 25 24 25 8 0 18 5 22 12 10 16 24 89 31 154 4 48 3
53 -24 71 -15 11 -43 23 -62 27 -19 3 -43 14 -54 23 -18 17 -19 17 -32 0 -7
-11 -26 -17 -48 -17 -20 0 -48 -5 -64 -12 -15 -6 -33 -10 -40 -9 -7 1 -20 -10
-29 -24 -12 -19 -22 -23 -40 -19 -15 4 -24 2 -24 -5 0 -7 -20 -11 -49 -11 -45
0 -49 2 -44 21 7 27 -19 49 -57 49 -27 0 -60 27 -60 49 0 14 -62 74 -80 79 -7
1 -19 9 -27 17 -8 8 -20 15 -27 15 -16 0 -116 104 -116 121 0 8 -6 6 -18 -4
-23 -21 -46 -22 -62 -2 -15 18 -26 18 -65 -2z"/>
<path d="M2755 5990 c-3 -11 -12 -20 -19 -20 -8 0 -19 -6 -26 -14 -6 -8 -17
-13 -24 -10 -13 5 -15 -64 -1 -85 4 -7 -4 -22 -19 -36 -33 -30 -33 -53 -1 -65
18 -7 25 -17 25 -36 0 -14 6 -38 14 -52 8 -15 18 -36 21 -47 5 -13 9 -15 12
-7 7 17 43 15 43 -3 0 -8 7 -15 15 -15 10 0 15 -10 15 -28 0 -30 26 -62 51
-62 26 0 59 -39 59 -69 0 -24 5 -29 30 -33 46 -7 58 14 60 108 1 49 80 80 158
63 29 -6 52 -15 52 -20 0 -5 4 -9 9 -9 9 0 -7 53 -22 78 -5 7 -6 21 -2 31 3
11 1 22 -4 26 -6 3 -8 19 -4 36 4 22 1 33 -12 43 -10 7 -15 18 -11 25 4 6 0
14 -9 17 -10 4 -13 13 -9 26 4 14 0 21 -15 25 -13 3 -21 13 -21 26 0 16 -3 18
-12 9 -24 -24 -56 -14 -74 23 -18 39 -29 42 -61 20 -18 -13 -25 -12 -62 5 -22
11 -48 32 -57 45 -22 33 -89 36 -99 5z"/>
<path d="M2626 5835 c-16 -15 -32 -22 -43 -18 -10 4 -14 2 -9 -5 9 -15 -32
-42 -64 -42 -14 0 -41 -13 -60 -29 -34 -28 -35 -30 -23 -62 9 -22 9 -37 3 -43
-6 -6 -10 -26 -10 -45 0 -30 -9 -43 -62 -93 -62 -58 -63 -60 -63 -113 0 -64 2
-65 113 -65 83 0 132 -23 132 -63 l0 -22 18 21 c19 25 79 36 104 21 22 -14 44
4 52 43 5 30 17 35 60 31 11 -1 17 2 13 5 -11 11 23 44 45 44 26 0 24 44 -4
62 -19 13 -21 18 -10 31 11 13 10 17 -5 25 -12 7 -17 20 -15 41 2 25 -1 31
-18 31 -11 0 -20 4 -20 9 0 5 -8 7 -18 4 -15 -3 -25 8 -46 50 -14 30 -24 61
-21 68 3 8 -7 21 -25 31 -36 21 -37 25 -5 72 28 42 20 47 -19 11z"/>
<path d="M3251 5606 c-6 -7 -9 -21 -5 -30 3 -9 3 -23 0 -32 -5 -14 -10 -13
-38 4 -37 23 -77 28 -125 17 -44 -10 -52 -22 -59 -94 -4 -33 -11 -61 -15 -61
-19 0 -7 -16 22 -29 40 -18 47 -37 20 -62 -24 -23 -29 -79 -6 -79 7 0 18 -7
23 -15 7 -13 12 -12 32 10 28 30 40 31 61 8 9 -10 31 -26 49 -36 30 -16 32
-19 16 -35 -17 -20 -5 -42 24 -42 8 0 33 -16 54 -36 33 -30 44 -35 71 -30 23
5 36 2 45 -9 17 -21 39 -2 33 28 -3 14 2 29 11 36 9 8 16 28 16 46 0 18 7 38
15 45 8 7 15 22 15 33 0 24 96 121 110 112 6 -3 10 -1 10 4 0 6 -6 11 -13 11
-8 0 -24 11 -37 25 -13 14 -28 24 -34 23 -6 -2 -26 3 -44 11 -24 10 -31 18
-27 32 4 13 -5 24 -38 43 -26 16 -51 24 -61 20 -20 -8 -73 38 -87 74 -10 25
-22 28 -38 8z"/>
<path d="M2830 5485 c0 -3 9 -14 20 -25 11 -11 20 -28 20 -39 0 -21 -25 -45
-38 -37 -6 3 -15 -1 -22 -9 -7 -8 -9 -15 -5 -15 4 0 2 -7 -6 -16 -7 -8 -21
-13 -31 -11 -20 6 -48 -17 -48 -38 0 -23 -40 -46 -61 -35 -24 14 -80 0 -100
-23 -19 -24 -43 -14 -36 15 7 26 -47 60 -83 51 -38 -9 -43 -14 -26 -26 13 -10
14 -19 7 -44 -10 -35 -3 -47 23 -37 9 4 24 -1 34 -9 9 -8 33 -17 52 -19 29 -2
35 -7 35 -26 0 -12 5 -26 10 -30 6 -4 11 -25 13 -47 3 -33 12 -48 49 -82 46
-43 46 -43 35 -82 -15 -49 -15 -51 3 -51 8 0 15 9 15 20 0 11 7 20 15 20 8 0
15 6 15 14 0 26 23 30 41 7 l18 -22 11 21 c7 14 19 20 33 18 18 -3 22 -10 25
-49 l3 -47 36 8 c48 11 53 18 59 79 l5 53 -29 -7 c-20 -4 -33 -1 -42 10 -7 8
-23 15 -36 15 -29 0 -30 8 -6 49 11 20 25 31 40 31 21 0 31 23 13 34 -15 10
-23 136 -9 153 7 8 12 25 13 37 0 12 9 25 22 31 12 5 26 20 32 33 14 29 14 45
1 37 -19 -12 -50 15 -50 43 0 16 -5 33 -12 40 -12 12 -58 17 -58 7z"/>
<path d="M2964 5352 c-9 -19 -25 -37 -35 -39 -12 -3 -19 -14 -19 -29 0 -12 -5
-26 -11 -29 -13 -9 -4 -131 11 -151 7 -7 10 -20 7 -28 -7 -18 17 -86 34 -97 8
-4 15 -21 15 -36 2 -38 -15 -103 -26 -103 -23 0 -9 -67 20 -100 34 -38 35 -41
18 -59 -11 -11 -10 -13 4 -8 30 11 28 -9 -3 -27 -16 -9 -29 -22 -29 -28 0 -6
9 -3 19 6 11 10 31 16 48 15 15 -2 37 2 47 8 15 8 25 8 42 -3 12 -8 39 -17 60
-20 22 -2 49 -15 65 -30 29 -28 45 -82 29 -98 -5 -5 -10 -19 -10 -31 0 -11
-16 -44 -35 -73 -29 -43 -41 -52 -65 -52 -23 0 -31 -5 -36 -24 -3 -14 -3 -30
1 -36 4 -6 -3 -27 -15 -47 -18 -30 -19 -40 -10 -63 6 -15 10 -34 9 -41 -7 -34
18 -54 68 -54 45 0 48 2 51 27 2 19 -2 28 -17 33 -12 3 -21 14 -21 22 0 16
-14 64 -31 110 -12 32 -2 50 33 62 44 16 51 14 44 -12 -4 -18 1 -29 23 -45
l29 -21 14 21 c16 25 54 18 44 -7 -11 -30 51 -17 100 20 26 20 52 34 58 32 6
-2 15 -22 20 -45 10 -41 22 -51 42 -33 5 5 24 12 43 16 33 7 34 6 27 -20 -6
-23 -4 -26 9 -21 9 3 20 6 25 6 4 0 10 10 13 21 5 17 11 20 31 15 15 -4 26 -2
26 4 0 16 30 12 36 -5 4 -8 13 -15 21 -15 9 0 26 -10 38 -22 52 -53 71 -63
116 -63 l44 0 0 -40 c0 -22 -3 -48 -7 -57 -6 -12 1 -24 23 -42 59 -50 89 -27
109 81 9 52 8 67 -5 92 -22 44 -19 88 10 116 13 14 30 25 38 25 8 0 29 15 48
33 24 23 48 36 78 41 36 5 41 9 31 21 -7 8 -18 15 -24 15 -6 0 -24 11 -41 24
-26 21 -28 27 -18 44 10 18 9 23 -14 37 l-26 18 24 18 c13 10 32 19 42 19 14
0 15 3 5 19 -7 11 -19 22 -29 24 -9 2 -19 17 -23 32 -10 40 -35 74 -67 90 -24
13 -30 13 -43 0 -22 -22 -114 0 -128 31 -9 18 -16 22 -39 17 -21 -4 -36 1 -60
22 -23 19 -39 25 -56 20 -27 -6 -108 46 -136 89 -9 13 -34 28 -61 36 -25 7
-51 19 -57 26 -7 8 -19 12 -29 9 -9 -3 -28 4 -43 15 -16 12 -28 16 -32 10 -8
-13 -45 -13 -45 1 0 6 -16 9 -39 8 -32 -3 -44 3 -75 31 -21 19 -42 34 -48 32
-6 -2 -21 7 -34 19 -23 21 -23 24 -7 41 16 17 14 19 -25 35 -24 9 -42 23 -42
31 0 11 -9 7 -30 -13 -28 -26 -32 -27 -56 -15 -14 8 -30 23 -35 33 -13 23 -2
77 17 84 24 9 15 28 -21 44 l-34 16 -17 -35z"/>
<path d="M6459 5364 c-7 -8 -25 -22 -40 -29 -15 -8 -32 -29 -38 -46 -9 -26
-14 -30 -33 -25 -13 4 -39 9 -58 13 -19 3 -43 13 -53 22 -17 14 -20 14 -31 0
-6 -9 -20 -18 -30 -20 -19 -4 -37 -28 -72 -95 -12 -22 -24 -31 -43 -31 -14 -1
-42 -5 -61 -10 -27 -7 -35 -14 -37 -33 0 -14 -1 -31 -2 -37 -1 -7 -7 -13 -15
-13 -28 0 -85 -44 -80 -62 7 -24 -36 -60 -62 -54 -13 4 -32 -2 -47 -14 -30
-24 -41 -25 -57 -5 -16 19 -31 20 -24 1 3 -8 0 -17 -6 -21 -17 -10 8 -35 35
-35 41 0 55 -11 55 -44 1 -32 29 -76 50 -76 6 0 29 9 51 20 34 18 45 19 78 9
29 -9 47 -9 74 0 19 7 39 11 43 10 22 -4 33 3 39 22 4 11 22 34 40 51 19 16
35 42 37 57 3 22 9 27 43 32 22 3 65 18 95 32 30 15 63 27 72 27 9 0 34 11 54
25 20 14 43 25 52 25 10 0 13 -7 8 -25 -3 -14 -9 -36 -12 -48 -6 -23 12 -51
36 -59 23 -7 -3 -36 -37 -41 -49 -8 -106 -67 -97 -102 3 -14 10 -27 14 -30 5
-3 45 31 90 75 45 44 87 80 93 80 7 0 25 7 41 15 28 15 31 14 61 -15 17 -16
34 -30 38 -30 14 0 6 27 -13 45 -34 30 -25 68 26 119 25 25 41 46 35 46 -6 0
-11 11 -11 25 0 17 -6 25 -17 26 -78 6 -97 9 -107 18 -8 7 -21 5 -40 -4 -16
-8 -30 -15 -32 -15 -10 0 -2 41 12 67 29 51 -15 110 -54 71 -9 -9 -15 -9 -24
1 -11 10 -9 16 10 31 26 21 28 30 8 30 -8 0 -18 9 -21 20 -8 24 -18 25 -36 4z"/>
<path d="M2230 5339 c-39 -14 -46 -21 -52 -53 -17 -79 -68 -145 -139 -182 -31
-15 -55 -36 -65 -57 -9 -17 -34 -52 -55 -77 -22 -25 -46 -53 -54 -62 -8 -10
-28 -18 -43 -18 -16 0 -52 -7 -81 -16 -68 -20 -81 -16 -95 26 -8 27 -17 36
-38 38 -24 3 -32 -4 -62 -50 -19 -30 -52 -66 -74 -81 -43 -28 -68 -80 -58
-121 6 -26 44 -46 86 -46 28 0 30 -2 30 -40 0 -22 -6 -49 -12 -60 -11 -17 -10
-26 7 -58 17 -31 26 -37 58 -40 37 -3 37 -4 37 -46 0 -25 6 -48 14 -55 8 -6
19 -31 25 -54 6 -23 14 -48 19 -54 5 -8 45 -15 107 -18 89 -5 104 -8 140 -34
22 -15 45 -26 52 -24 6 2 14 -1 18 -6 8 -14 45 -14 45 -1 0 6 7 10 15 10 17 0
39 -36 30 -51 -4 -5 -4 -21 -1 -35 5 -19 11 -24 26 -19 21 7 24 0 20 -42 -1
-13 10 -33 24 -46 14 -14 26 -31 26 -40 0 -8 12 -18 27 -22 15 -3 42 -20 61
-36 28 -25 39 -29 66 -23 36 7 46 15 29 21 -26 9 -13 43 22 60 31 15 35 21 37
57 3 68 -1 89 -15 98 -18 10 -21 85 -4 95 7 5 12 17 12 28 0 15 7 20 27 20 15
0 33 8 41 19 8 11 19 16 25 12 15 -9 16 -43 2 -51 -5 -3 -10 -13 -10 -21 0
-17 51 -19 80 -4 15 8 23 4 41 -22 22 -30 22 -31 3 -47 -10 -9 -20 -28 -20
-44 -3 -44 -12 -60 -34 -54 -13 3 -20 0 -20 -9 0 -14 12 -18 40 -14 23 3 69
52 70 74 0 13 4 16 18 11 9 -4 34 -9 55 -10 20 -1 44 -8 52 -15 25 -21 35 -2
19 36 -17 41 -12 54 16 36 11 -6 22 -8 25 -3 9 16 -6 41 -25 41 -17 0 -37 17
-29 25 11 11 62 -11 69 -29 11 -29 -7 -59 -31 -53 -17 5 -17 3 -4 -23 10 -20
11 -30 2 -39 -14 -14 -57 -15 -57 0 0 6 -6 9 -14 6 -8 -3 -27 -2 -41 2 -24 6
-34 1 -71 -36 -44 -45 -68 -52 -99 -29 -24 17 -13 46 18 46 19 0 23 6 25 38 2
20 10 42 18 49 12 9 13 16 5 32 -10 17 -15 19 -41 9 -60 -20 -109 15 -74 54
10 10 14 21 10 25 -3 4 -13 -3 -22 -15 -11 -17 -22 -21 -42 -16 -25 5 -26 4
-9 -10 18 -14 18 -15 -6 -31 -27 -18 -26 -50 2 -71 12 -9 15 -28 13 -79 -2
-74 -8 -87 -54 -106 -29 -12 -29 -13 -12 -26 26 -19 7 -47 -35 -51 -34 -4 -41
-24 -16 -52 13 -14 12 -19 -11 -43 -14 -15 -34 -27 -46 -27 -21 0 -21 0 -2
-14 15 -12 17 -17 7 -27 -7 -7 -13 -31 -13 -53 0 -37 1 -38 18 -23 37 33 75 8
69 -45 -2 -20 3 -23 33 -26 19 -2 46 -14 60 -27 21 -20 38 -24 114 -28 72 -4
92 -8 103 -23 7 -10 11 -24 9 -31 -8 -20 14 -26 33 -9 10 9 24 16 32 16 8 0
22 18 32 40 9 22 22 40 29 40 6 0 19 7 29 16 10 9 41 18 69 21 45 4 51 2 59
-19 7 -17 5 -26 -7 -36 -16 -12 -16 -14 1 -27 22 -16 82 -3 113 26 24 23 57
25 74 4 19 -23 55 -18 104 15 48 33 85 33 109 1 14 -19 89 -20 112 -1 12 10
20 9 40 -4 14 -9 25 -23 25 -30 0 -13 39 -30 49 -21 2 3 5 21 5 40 1 19 7 40
14 47 7 7 12 22 12 34 0 12 7 27 16 35 8 7 24 30 35 51 11 21 25 39 32 39 6 1
24 2 39 3 27 2 57 29 58 52 0 6 9 21 20 34 11 13 20 27 20 32 0 4 7 8 15 8 8
0 19 9 25 20 9 17 7 22 -14 29 -13 6 -27 15 -31 21 -4 7 -19 9 -35 5 -32 -7
-48 9 -30 30 7 9 9 26 6 40 -7 27 12 43 35 29 25 -15 153 -16 174 -1 15 12 17
18 8 29 -7 8 -10 37 -8 71 l3 58 -44 -7 c-34 -5 -45 -3 -50 9 -3 8 -19 21 -35
27 -16 7 -29 19 -29 26 0 8 -8 14 -18 14 -10 0 -23 5 -30 12 -21 21 -70 15
-81 -9 -8 -18 -19 -23 -46 -23 -31 0 -36 3 -30 19 5 18 3 19 -24 11 -17 -5
-35 -11 -41 -15 -16 -10 -41 15 -36 34 3 9 -1 25 -9 35 -14 19 -15 19 -37 0
-13 -10 -27 -24 -33 -30 -5 -6 -31 -14 -57 -17 -44 -6 -48 -5 -48 15 0 20 -1
20 -18 5 -10 -10 -22 -17 -26 -17 -17 0 -77 54 -72 65 5 14 -31 9 -39 -6 -10
-15 39 -149 57 -155 21 -6 21 -51 0 -76 -16 -20 -57 -24 -67 -8 -4 7 -12 7
-23 1 -13 -7 -20 -3 -34 20 -10 16 -18 39 -18 50 0 11 -5 29 -11 40 -8 16 -6
28 11 56 14 23 19 45 15 62 -9 42 17 67 72 70 23 2 82 126 83 173 0 34 -44 70
-95 78 -43 6 -54 4 -80 -15 -16 -12 -68 -43 -115 -69 -47 -26 -109 -64 -137
-84 -47 -32 -53 -40 -53 -72 0 -20 6 -44 13 -54 12 -16 19 -17 63 -7 81 19 79
20 82 -26 3 -41 2 -42 -32 -49 -20 -3 -43 -3 -52 0 -11 4 -14 0 -12 -16 2 -11
-2 -23 -8 -25 -6 -2 -11 8 -10 24 1 26 4 28 51 33 31 3 50 10 49 18 -3 42 -4
43 -21 34 -10 -5 -37 -12 -60 -15 -53 -6 -71 12 -80 81 -5 49 -5 52 23 64 16
7 47 26 70 43 22 16 76 49 120 73 93 50 131 78 122 88 -4 4 -14 1 -23 -6 -8
-7 -25 -10 -38 -6 -14 3 -33 -1 -46 -10 -12 -9 -28 -13 -36 -10 -22 8 -18 34
6 41 15 5 18 10 9 15 -9 6 -9 12 1 28 12 18 11 23 -2 34 -26 21 -49 61 -49 85
0 16 -6 23 -19 23 -11 0 -23 -4 -26 -10 -3 -5 -13 -10 -21 -10 -10 0 -14 13
-14 50 0 55 -11 63 -39 28 -18 -22 -41 -18 -41 8 0 8 -4 14 -10 14 -5 0 -10
-6 -10 -14 0 -8 -7 -16 -15 -20 -8 -3 -15 -12 -15 -21 0 -10 -10 -15 -30 -15
-30 0 -31 1 -24 38 4 20 12 40 17 44 6 4 -11 28 -41 56 -31 30 -53 60 -54 74
-2 42 -3 47 -11 54 -4 4 -7 17 -7 29 0 18 -4 21 -25 17 -16 -3 -33 2 -44 12
-11 10 -31 16 -47 14 -28 -3 -29 -1 -30 40 0 24 -6 47 -14 52 -7 4 -10 13 -6
18 6 10 -18 17 -84 25 -8 1 -17 11 -20 22 -5 20 -6 20 -50 4z"/>
<path d="M2853 5030 c-17 -26 -16 -30 6 -30 11 0 23 -4 26 -10 13 -21 26 -9
23 23 -4 39 -36 49 -55 17z"/>
<path d="M6437 5020 c-14 -11 -32 -20 -40 -20 -9 0 -48 -16 -88 -35 -41 -19
-86 -35 -102 -35 -22 0 -28 -4 -23 -15 3 -10 -9 -32 -33 -58 -21 -23 -43 -52
-50 -64 -8 -16 -21 -23 -40 -23 -15 0 -42 -5 -60 -11 -24 -8 -39 -8 -61 1 -26
11 -37 9 -79 -9 -33 -14 -62 -19 -87 -16 -25 3 -43 0 -54 -10 -9 -8 -45 -17
-81 -20 -35 -3 -85 -8 -112 -12 -28 -3 -53 -1 -61 6 -16 14 -46 4 -64 -21 -7
-10 -20 -18 -28 -18 -11 0 -13 -6 -9 -20 4 -11 0 -34 -9 -51 -11 -23 -13 -37
-5 -57 6 -14 8 -37 4 -49 -7 -29 6 -29 31 -2 38 42 67 50 154 40 44 -5 86 -14
94 -20 11 -9 19 -5 40 20 15 17 30 29 33 25 4 -3 13 0 22 8 9 8 36 16 61 18
36 2 44 0 41 -12 -2 -8 -6 -28 -9 -43 -4 -25 -2 -27 20 -22 16 4 29 1 37 -9 8
-9 20 -16 27 -16 8 0 14 -7 14 -15 0 -7 7 -18 16 -23 22 -12 10 -46 -26 -72
-21 -15 -27 -26 -23 -41 5 -19 3 -21 -19 -16 -24 6 -25 5 -23 -32 1 -21 6 -44
11 -52 5 -8 7 -21 6 -29 -1 -8 9 -20 23 -27 24 -11 27 -9 46 29 15 30 24 37
32 29 25 -25 37 -12 37 41 0 28 6 59 13 67 22 26 49 105 37 109 -27 9 2 68 68
142 3 3 7 -1 9 -7 9 -25 25 -13 19 12 -7 28 39 119 55 110 4 -3 15 8 24 25 9
18 23 30 35 30 12 0 25 10 31 23 6 13 23 29 37 35 42 19 65 35 94 65 15 15 38
27 52 27 14 0 28 5 31 10 3 6 2 10 -4 10 -6 0 -18 14 -27 31 -12 25 -14 37 -5
56 19 41 9 45 -32 13z"/>
<path d="M5062 4935 c-17 -14 -37 -25 -47 -25 -11 0 -15 -6 -10 -18 3 -11 -1
-33 -8 -51 -15 -35 -12 -75 7 -90 17 -14 62 -17 77 -4 8 6 23 12 33 14 17 4
20 14 23 88 2 70 0 86 -15 97 -23 18 -26 18 -60 -11z"/>
<path d="M6342 4794 c-13 -6 -30 -21 -37 -32 -8 -11 -25 -22 -38 -26 -13 -3
-29 -17 -35 -31 -6 -14 -16 -25 -22 -25 -17 0 -44 -51 -50 -94 -5 -35 -9 -41
-27 -39 -15 2 -32 -10 -54 -39 -28 -35 -31 -42 -18 -52 9 -6 18 -19 22 -29 10
-27 28 -16 41 23 10 33 14 35 62 38 36 2 57 9 69 22 23 25 35 25 35 1 0 -40
40 -37 59 5 6 14 11 36 11 49 0 13 5 27 10 30 14 8 13 78 -1 92 -9 9 -9 19 0
40 6 16 8 39 3 53 -6 23 -9 25 -30 14z"/>
<path d="M4225 4770 c-3 -5 -15 -10 -26 -10 -20 0 -20 -1 -2 -32 10 -18 21
-34 26 -36 4 -2 7 -10 7 -18 0 -8 6 -14 14 -14 17 0 49 -58 40 -72 -3 -5 -13
-7 -21 -4 -8 3 -24 -1 -35 -9 -21 -14 -21 -14 5 -24 31 -12 33 -18 11 -42 -17
-19 -22 -14 56 -57 53 -29 47 -53 -20 -68 -36 -8 -61 -21 -75 -37 -11 -14 -36
-32 -57 -40 -48 -20 -55 -46 -27 -112 24 -58 45 -69 91 -44 14 8 23 8 31 0 6
-6 20 -11 30 -11 10 0 21 -9 24 -20 7 -26 24 -25 57 1 24 19 29 20 44 6 15
-13 24 -12 85 12 45 17 67 31 67 42 0 24 23 40 40 29 8 -6 25 -10 38 -10 13 0
22 -6 22 -15 0 -8 6 -15 14 -15 8 0 22 -10 30 -22 l15 -21 12 26 c10 21 19 27
45 27 40 0 64 22 64 60 0 30 42 80 67 80 7 0 13 5 13 10 0 6 11 10 24 10 18 0
25 6 28 23 2 14 11 23 26 25 30 4 28 15 -10 57 l-31 36 24 25 c13 14 32 32 42
42 18 18 23 47 8 57 -5 3 -11 -2 -13 -11 -2 -12 -16 -17 -58 -19 -30 -1 -62
-5 -71 -9 -22 -10 -69 10 -69 30 0 13 -6 11 -25 -10 -29 -31 -33 -31 -65 -6
-19 15 -41 20 -97 20 -52 0 -73 4 -73 13 -1 31 -15 38 -53 22 -38 -16 -53 -12
-97 22 -8 6 -26 13 -40 15 -20 2 -26 9 -28 36 -3 26 -8 32 -26 32 -13 0 -35 9
-49 20 -16 13 -28 16 -32 10z"/>
<path d="M4980 4740 c0 -6 11 -25 25 -42 17 -20 23 -37 19 -52 -3 -14 1 -27
10 -35 22 -18 20 -44 -4 -66 -11 -10 -22 -26 -25 -36 -4 -11 -13 -19 -21 -19
-19 0 -18 -14 2 -31 17 -14 44 -62 44 -79 0 -5 -11 -10 -25 -10 -34 0 -40 -19
-21 -65 9 -21 16 -66 16 -101 0 -60 -2 -67 -37 -105 -21 -23 -48 -45 -60 -50
-13 -5 -23 -17 -23 -28 0 -21 -26 -36 -35 -21 -11 18 -43 11 -48 -10 -3 -13
-17 -22 -37 -26 -21 -5 -35 -15 -41 -30 -9 -25 -37 -32 -56 -13 -19 19 -43 2
-43 -31 0 -21 5 -30 16 -30 9 0 27 -9 41 -20 14 -11 34 -20 44 -20 13 0 19 -7
19 -23 0 -15 15 -37 41 -61 37 -33 41 -40 36 -71 -4 -27 -2 -35 9 -35 8 0 17
-7 20 -15 4 -8 18 -15 33 -15 18 0 35 -11 55 -35 28 -33 30 -34 57 -19 16 8
40 32 54 54 41 64 51 51 28 -34 -5 -18 11 -36 33 -36 6 0 17 14 24 30 7 17 17
30 22 30 6 0 7 -7 4 -15 -3 -8 -9 -22 -12 -30 -3 -8 -2 -15 4 -15 5 0 12 9 15
20 6 24 27 27 27 4 0 -12 6 -15 23 -10 12 3 27 6 34 6 14 0 6 108 -13 166 -7
23 -10 58 -7 78 4 25 2 36 -7 36 -9 0 -10 10 -6 34 6 31 4 35 -16 38 -16 2
-23 10 -23 25 0 12 -8 30 -18 41 -19 20 -23 57 -7 67 5 3 9 26 8 50 -2 41 -4
45 -29 45 -30 0 -81 23 -99 46 -10 11 -10 23 -1 54 12 40 25 51 34 28 3 -7 12
4 21 25 15 35 19 37 61 37 49 0 54 8 29 45 -12 19 -25 25 -50 25 -22 0 -34 5
-34 13 0 19 -33 47 -53 47 -30 0 -21 57 13 92 25 24 28 33 19 45 -8 9 -9 17
-2 24 7 7 21 0 43 -21 20 -18 42 -30 59 -29 14 0 20 3 14 6 -19 7 -16 35 4 31
9 -2 26 -21 37 -43 16 -30 28 -41 49 -43 21 -3 27 1 27 17 0 11 6 24 14 28 19
11 36 47 36 76 0 20 -9 28 -45 41 -26 10 -56 15 -72 12 -22 -5 -35 0 -61 24
-33 30 -75 39 -87 20 -10 -16 -67 -12 -87 7 -12 11 -18 12 -18 3z"/>
<path d="M5740 4539 c-7 -11 -17 -18 -25 -15 -7 2 -23 -6 -36 -20 -26 -28 -28
-28 -66 -13 -15 7 -61 13 -101 15 -72 2 -74 2 -113 -33 -46 -42 -55 -94 -18
-114 34 -18 213 -15 385 7 34 4 54 2 58 -5 11 -17 45 -13 77 10 32 23 35 33
17 55 -35 41 -54 54 -77 52 -24 -3 -26 0 -26 40 0 41 -1 42 -32 42 -22 0 -36
-6 -43 -21z"/>
<path d="M6256 4491 c-12 -13 -30 -21 -45 -20 -53 4 -71 -1 -71 -19 0 -10 -7
-28 -16 -40 -12 -17 -19 -20 -33 -13 -22 12 -41 -4 -41 -34 0 -12 -8 -29 -17
-38 -14 -12 -18 -32 -18 -93 l0 -78 87 -12 c47 -6 97 -14 110 -17 21 -6 25 -2
36 45 6 29 25 81 42 116 33 71 38 117 15 126 -11 4 -14 13 -9 31 4 15 2 25 -4
25 -6 0 -12 10 -14 21 l-3 21 -19 -21z"/>
<path d="M4920 4321 c0 -7 -8 -15 -17 -18 -33 -13 -51 -38 -58 -81 -5 -34 -13
-45 -32 -53 -14 -5 -34 -7 -43 -4 -13 4 -25 -4 -41 -26 l-22 -32 -18 22 c-9
11 -22 21 -28 21 -5 0 -14 6 -18 13 -9 16 -68 38 -77 30 -3 -4 -6 -14 -6 -24
0 -12 -16 -23 -47 -35 -27 -9 -52 -21 -57 -26 -14 -12 -50 -10 -63 3 -9 9 -19
6 -41 -10 -39 -27 -50 -27 -64 4 -9 19 -14 22 -29 15 -13 -7 -20 -6 -26 3 -6
10 -22 12 -58 8 l-50 -6 -5 -44 c-5 -41 -2 -46 36 -85 23 -22 44 -48 47 -56 4
-11 8 -12 14 -3 13 19 36 -1 29 -25 -4 -11 -2 -23 4 -27 5 -3 10 -20 10 -36 0
-25 6 -33 30 -42 40 -15 38 -40 -6 -81 l-36 -33 32 -13 c23 -9 37 -10 53 -2
12 6 48 14 80 17 54 6 57 5 57 -15 0 -12 -5 -30 -10 -41 -15 -26 11 -36 41
-15 16 10 27 12 40 6 10 -6 25 -7 33 -4 9 4 23 1 31 -6 25 -20 37 -1 30 45 -8
55 5 63 58 37 69 -32 98 -43 107 -37 16 10 -2 43 -41 71 -31 23 -38 34 -34 52
4 18 1 22 -19 22 -14 0 -28 5 -31 10 -4 6 -22 17 -41 25 -40 16 -46 49 -15 86
17 21 21 22 44 10 22 -12 27 -10 50 13 14 14 35 26 45 26 11 0 24 11 31 26 8
18 17 25 29 21 43 -12 47 -11 50 11 2 13 10 22 21 22 10 0 36 19 57 43 36 39
39 46 38 97 -1 63 -13 120 -24 120 -5 0 -15 3 -24 6 -9 3 -16 1 -16 -5z"/>
<path d="M5830 4211 c0 -6 -7 -11 -15 -11 -14 0 -19 -11 -16 -37 1 -7 -4 -13
-11 -13 -7 0 -34 -10 -61 -22 -38 -19 -49 -30 -57 -58 -14 -49 -12 -76 5 -90
8 -7 15 -23 15 -36 0 -19 5 -23 22 -21 15 1 26 -5 33 -21 15 -34 40 -23 40 18
0 19 4 41 9 49 5 8 9 28 10 44 1 24 6 31 23 32 13 1 26 5 30 8 10 11 10 70 0
97 -6 14 -9 32 -8 42 1 9 -3 19 -9 23 -5 3 -10 1 -10 -4z"/>
<path d="M1696 4203 c-25 -4 -28 -8 -22 -34 3 -18 1 -29 -6 -29 -6 0 -19 -7
-29 -16 -21 -19 -59 -10 -59 14 0 14 -7 17 -39 14 -22 -2 -47 -12 -57 -23 -21
-23 -67 -25 -84 -4 -10 12 -28 15 -77 12 -34 -2 -63 0 -63 3 0 4 -14 7 -30 7
-29 0 -30 -2 -24 -30 l6 -30 -50 5 c-58 6 -76 -5 -61 -34 7 -14 7 -23 -2 -34
-9 -11 -7 -14 15 -14 17 0 26 -5 26 -15 0 -37 43 -97 93 -130 56 -36 148 -57
161 -36 4 6 17 11 29 11 25 1 57 22 57 39 0 12 6 14 68 16 23 0 42 -3 42 -8 0
-13 -60 -67 -74 -67 -6 0 -20 -13 -29 -30 -10 -17 -27 -30 -38 -30 -10 0 -27
-4 -37 -9 -41 -22 -89 -39 -117 -43 -25 -2 -30 0 -29 19 1 29 -23 38 -36 13
-17 -31 -13 -38 58 -113 37 -40 89 -101 114 -137 25 -36 60 -75 76 -87 43 -32
102 -54 126 -48 68 18 102 30 108 39 3 5 30 16 59 23 53 14 64 23 95 79 19 36
13 63 -16 71 -20 5 -28 23 -10 23 5 0 21 20 35 44 l26 44 52 -5 c58 -5 62 -7
52 -23 -4 -7 -18 -9 -31 -6 -19 5 -24 2 -24 -14 0 -11 5 -20 10 -20 15 0 12
-19 -5 -36 -22 -22 -18 -34 10 -34 28 0 32 -9 13 -28 -7 -7 -13 -16 -14 -20 0
-4 -4 -15 -9 -25 -5 -13 -1 -25 14 -41 12 -13 19 -30 16 -38 -4 -9 -2 -19 4
-22 11 -7 3 -75 -12 -93 -7 -10 -2 -13 23 -13 24 0 33 -5 37 -21 4 -14 12 -19
27 -17 18 3 21 10 21 52 0 52 14 68 41 45 12 -10 20 -9 39 1 14 7 25 17 25 22
0 15 -22 52 -39 65 -14 10 -13 13 9 21 14 6 31 17 38 25 7 8 28 18 47 21 47 9
45 28 -2 26 -62 -3 -63 -2 -59 31 2 20 11 35 27 43 19 9 25 21 27 54 2 23 8
42 14 42 6 0 3 9 -6 19 -22 25 -13 41 22 41 36 0 55 29 36 55 -8 10 -14 27
-14 37 0 10 -6 18 -14 18 -8 0 -17 7 -20 16 -3 8 -26 24 -51 35 -25 11 -45 27
-45 35 0 8 -12 26 -26 39 -20 19 -25 30 -20 49 5 19 3 24 -7 20 -22 -8 -48 40
-41 75 7 34 3 37 -25 19 -11 -7 -26 -8 -37 -3 -11 5 -23 9 -29 10 -5 0 -29 14
-53 30 -32 21 -57 29 -95 30 -29 2 -63 5 -77 8 -14 2 -38 3 -54 0z"/>
<path d="M5950 4197 c0 -7 -11 -25 -25 -42 -21 -25 -26 -28 -35 -15 -8 11 -10
-5 -7 -60 1 -41 5 -79 9 -85 3 -5 9 -32 12 -58 4 -27 18 -69 31 -95 13 -26 26
-68 30 -94 7 -46 17 -59 30 -38 4 7 13 6 26 -1 12 -6 22 -9 23 -7 28 47 29 59
13 112 -23 70 -22 83 8 110 24 23 26 29 23 112 -3 80 -5 89 -23 92 -56 8 -65
13 -65 35 0 14 -9 26 -25 34 -19 8 -25 8 -25 0z"/>
<path d="M4093 4001 c-15 -25 -46 -32 -76 -16 -20 10 -27 9 -47 -7 -20 -16
-33 -18 -99 -12 -42 4 -82 12 -90 18 -11 9 -13 7 -7 -11 4 -12 3 -31 -3 -41
-9 -16 -6 -19 21 -19 18 0 34 -6 40 -16 5 -9 15 -17 23 -17 20 0 27 -15 19
-45 -4 -16 -13 -25 -25 -25 -12 0 -19 -7 -19 -20 0 -10 -8 -24 -19 -29 -10 -6
-22 -22 -25 -35 -6 -25 -38 -50 -66 -52 -8 -1 -22 -2 -31 -3 -8 0 -22 -17 -29
-37 -8 -20 -22 -40 -31 -45 -10 -5 -15 -16 -12 -27 2 -11 -3 -26 -11 -35 -9
-8 -16 -32 -16 -52 0 -27 -8 -44 -27 -64 -31 -30 -35 -49 -15 -70 9 -9 11 -26
8 -47 -4 -18 -3 -35 2 -38 15 -9 1 -55 -19 -61 -23 -8 -25 -21 -4 -29 17 -6
20 -43 4 -48 -6 -2 8 -22 31 -45 29 -30 41 -49 38 -65 -3 -20 -8 -23 -41 -21
-35 2 -39 0 -51 -30 -7 -17 -12 -50 -12 -72 1 -34 5 -41 23 -43 26 -4 63 -47
63 -73 0 -13 7 -19 24 -19 20 0 25 -6 31 -40 6 -37 9 -40 38 -37 24 1 35 10
49 37 10 19 18 42 18 51 0 10 17 26 38 36 21 12 38 28 40 41 2 11 15 28 29 37
24 16 25 21 19 74 -3 31 -13 70 -20 86 -8 17 -17 37 -20 45 -3 8 -11 22 -18
31 -29 40 33 68 78 34 10 -8 28 -15 40 -15 11 0 25 -5 32 -12 9 -9 12 -9 12 3
0 8 -15 19 -32 24 -29 9 -33 14 -33 45 0 19 -3 40 -7 46 -13 20 -1 89 16 92 9
2 16 11 16 21 0 40 68 75 111 57 17 -8 54 37 44 54 -9 14 27 79 46 85 15 5 16
10 7 31 -10 20 -8 28 12 49 12 13 35 27 51 30 22 5 29 12 29 29 0 13 13 35 30
49 35 31 38 53 10 62 -24 8 -42 38 -34 58 3 8 -2 17 -11 21 -11 4 -14 13 -10
25 4 14 1 19 -12 17 -9 0 -22 9 -29 22 -12 25 -64 82 -73 82 -4 0 -11 -8 -18
-19z"/>
<path d="M4653 3672 c6 -50 -20 -95 -44 -76 -25 20 -95 26 -109 9 -17 -20 -33
-19 -54 4 -11 12 -14 21 -7 26 6 3 11 15 11 27 0 19 -4 20 -50 14 -28 -4 -62
-12 -75 -18 -18 -8 -28 -8 -38 0 -10 9 -26 5 -68 -16 -50 -25 -54 -30 -54 -62
0 -24 -8 -44 -27 -64 -29 -30 -35 -52 -17 -58 6 -2 -5 -21 -24 -42 -30 -33
-37 -36 -54 -25 -27 16 -77 -8 -81 -39 -2 -12 -12 -28 -23 -36 -18 -12 -20
-21 -14 -84 7 -67 8 -70 39 -79 33 -9 42 -28 26 -53 -7 -12 -12 -12 -22 -2 -6
6 -21 12 -32 12 -11 0 -27 6 -35 14 -9 7 -26 17 -39 21 -29 8 -41 -19 -18 -44
9 -10 16 -26 16 -36 0 -10 6 -26 14 -34 7 -9 17 -42 20 -73 7 -54 6 -59 -21
-85 -15 -16 -26 -33 -25 -39 3 -13 -60 -64 -78 -64 -6 0 -8 -5 -5 -10 4 -6 0
-22 -9 -35 -16 -24 -22 -55 -11 -55 3 0 29 12 58 26 29 15 64 27 80 26 25 -1
27 2 27 42 0 67 29 86 56 35 l16 -31 22 21 c12 12 30 21 39 21 11 0 17 8 17
23 0 24 22 49 52 60 9 3 18 15 20 27 4 28 58 62 66 41 8 -23 50 -58 77 -65 20
-5 33 2 65 34 23 23 49 40 63 40 31 0 97 68 97 101 0 26 36 69 58 69 7 0 12
-10 12 -21 0 -16 3 -19 13 -11 6 5 39 18 72 27 39 11 71 28 91 48 17 18 41 40
53 50 12 10 19 22 15 28 -3 6 6 23 20 38 29 30 29 63 0 106 -20 29 -18 40 20
79 22 24 42 36 60 36 14 0 26 5 26 10 0 20 -45 54 -67 52 -14 -2 -26 4 -33 17
-6 12 -17 21 -26 21 -8 0 -17 6 -20 14 -3 8 -29 22 -57 31 -29 9 -61 24 -71
33 -18 16 -19 16 -13 -26z"/>
<path d="M2292 3584 c-12 -8 -27 -14 -34 -13 -31 3 -58 -14 -58 -37 0 -21 4
-23 25 -18 34 8 75 -3 75 -21 0 -17 -30 -35 -58 -35 -10 0 -29 -11 -41 -24
-21 -23 -22 -26 -7 -54 19 -36 14 -55 -20 -77 -18 -12 -29 -13 -43 -5 -27 14
-31 13 -29 -7 1 -10 0 -33 0 -50 -2 -31 -5 -33 -37 -33 -24 0 -35 5 -35 15 0
10 -11 15 -35 15 -24 0 -35 -5 -35 -14 0 -8 -5 -27 -11 -43 -14 -33 -12 -82 4
-101 6 -7 11 -40 11 -73 1 -57 10 -76 22 -44 4 8 10 12 16 9 5 -3 0 -20 -11
-39 -18 -32 -19 -39 -7 -117 7 -46 18 -94 23 -108 6 -14 11 -44 11 -68 1 -24
6 -51 11 -60 8 -16 14 -92 13 -167 -1 -35 25 -113 45 -136 7 -8 13 -21 13 -27
0 -9 5 -9 21 0 17 11 23 10 39 -9 15 -19 20 -20 30 -8 6 7 18 11 26 8 10 -3
16 4 20 26 4 17 11 34 15 37 14 8 11 36 -5 48 -8 6 -18 23 -22 39 -5 21 -3 27
11 27 9 0 23 7 32 15 10 11 19 13 27 6 9 -8 22 -1 47 24 36 36 57 43 76 24 9
-9 16 -7 29 5 9 10 28 16 43 14 24 -3 26 0 26 37 0 52 10 68 35 55 10 -5 42
-10 70 -10 42 0 51 3 46 15 -6 16 26 51 56 61 27 8 65 46 69 69 3 12 14 21 27
23 14 2 22 10 22 22 0 22 37 37 53 21 18 -18 37 -13 37 10 0 12 8 23 19 26 26
7 45 51 30 69 -9 11 -9 21 -1 37 5 12 13 30 16 40 6 18 36 24 36 7 0 -5 5 -10
11 -10 6 0 9 7 5 15 -3 9 3 19 14 25 16 9 20 21 20 62 0 48 1 50 23 43 12 -3
32 -9 45 -12 13 -3 34 -21 49 -39 26 -35 59 -44 80 -23 8 8 17 8 33 -1 18 -9
25 -8 40 5 25 23 53 12 75 -28 14 -27 15 -37 6 -56 -9 -16 -9 -26 -2 -35 6 -7
10 -24 9 -37 -3 -20 2 -25 26 -27 27 -3 28 -2 23 25 -6 32 12 81 37 102 14 12
22 12 37 3 24 -15 26 -15 33 3 3 10 -11 33 -39 62 -42 44 -44 48 -29 65 15 16
15 18 0 24 -23 9 -20 39 7 57 19 13 20 18 10 36 -7 11 -10 33 -7 51 4 19 2 30
-5 30 -6 0 -11 16 -11 35 0 25 6 38 23 47 22 12 22 12 -7 18 -18 3 -30 12 -32
24 -4 31 -21 41 -46 29 -28 -14 -118 -15 -118 -2 0 5 -12 14 -27 20 -30 11
-63 0 -96 -33 -22 -22 -56 -23 -83 -3 -26 20 -50 19 -82 -5 -43 -32 -95 -37
-121 -11 -25 25 -27 41 -6 41 18 0 20 16 3 26 -19 12 -65 5 -98 -14 -32 -20
-72 -66 -64 -74 9 -10 -84 -58 -100 -52 -9 4 -16 18 -16 34 0 35 -15 41 -111
41 -68 0 -79 3 -100 25 -15 16 -33 24 -55 24 -43 0 -65 23 -58 59 7 35 -6 45
-34 25z"/>
<path d="M3096 3087 c-3 -12 -6 -34 -6 -49 0 -18 -5 -28 -15 -28 -8 0 -15 -9
-15 -19 0 -25 -18 -37 -33 -22 -6 6 -14 11 -18 11 -12 0 -19 -63 -9 -75 12
-15 -21 -80 -46 -89 -12 -5 -15 -20 -12 -69 2 -46 -2 -71 -14 -89 -16 -23 -15
-25 9 -40 23 -14 24 -16 8 -29 -48 -40 -56 -51 -47 -62 13 -16 22 -146 11
-153 -11 -6 -12 -24 -1 -23 26 4 32 -2 22 -20 -13 -26 -13 -88 1 -97 6 -3 32
-8 57 -9 39 -3 52 1 74 22 23 22 33 25 71 20 38 -5 47 -3 67 18 13 14 34 25
46 25 18 0 23 6 26 32 3 29 9 34 63 55 33 13 70 22 82 20 19 -4 22 -1 17 19
-5 19 -1 26 20 36 24 10 30 9 52 -15 14 -15 30 -27 37 -27 6 0 1 7 -11 16 -28
20 -28 28 4 49 17 11 29 13 37 6 12 -9 96 24 120 48 6 6 19 11 30 11 11 0 23
13 32 33 8 19 21 39 29 47 25 20 19 33 -11 25 -16 -4 -50 -8 -77 -8 -49 -2
-49 -2 -60 37 -7 26 -18 40 -30 42 -21 3 -36 21 -36 44 0 21 -20 40 -41 40 -9
0 -22 7 -29 15 -7 8 -23 15 -35 15 -29 0 -51 26 -47 55 2 13 -1 26 -7 29 -6 4
-5 17 2 35 8 23 8 36 -3 55 -14 27 -44 34 -56 15 -4 -7 -21 -9 -40 -6 -19 3
-34 2 -34 -4 0 -24 -54 -7 -86 27 -19 19 -47 39 -63 44 -25 7 -30 5 -35 -13z"/>
<path d="M4351 2920 c-21 -22 -48 -40 -59 -40 -31 0 -91 32 -98 53 -3 9 -8 17
-12 17 -13 0 -37 -19 -38 -30 -1 -5 -2 -14 -3 -19 0 -5 -17 -19 -37 -30 -25
-15 -34 -26 -30 -38 8 -19 -11 -43 -34 -43 -10 0 -23 -7 -30 -15 -18 -22 -39
-18 -52 10 -17 37 -31 25 -32 -26 -1 -39 -4 -44 -26 -47 -57 -7 -91 -23 -85
-41 3 -11 -4 -26 -20 -41 -14 -13 -25 -31 -25 -40 0 -21 -31 -50 -52 -50 -9 0
-21 -7 -28 -15 -7 -8 -20 -15 -30 -15 -10 0 -24 -7 -31 -16 -9 -11 -23 -14
-45 -11 -39 7 -68 -17 -33 -26 14 -4 19 -12 17 -24 -5 -24 -47 -20 -70 7 -9
11 -24 20 -33 20 -13 0 -15 -6 -10 -29 7 -32 -6 -47 -31 -33 -10 5 -36 1 -74
-12 -56 -19 -59 -23 -62 -56 -3 -31 -6 -35 -34 -38 -18 -2 -40 -12 -50 -23
-13 -14 -30 -19 -69 -19 -39 0 -56 -5 -70 -20 -27 -29 -128 -29 -148 1 -21 29
-92 24 -92 -6 0 -11 -6 -30 -12 -41 -11 -18 -9 -26 7 -47 23 -29 26 -75 7 -83
-8 -3 -25 0 -39 5 -32 12 -41 5 -25 -20 9 -14 9 -21 -1 -31 -18 -18 -15 -42 8
-56 12 -7 19 -16 16 -20 -3 -5 -1 -14 4 -22 7 -11 12 -11 23 -2 17 14 73 10
90 -7 9 -9 4 -19 -21 -43 -28 -29 -35 -31 -59 -22 -26 10 -28 9 -28 -17 0 -33
12 -48 21 -25 8 21 64 22 64 1 0 -24 41 -17 72 12 26 25 29 25 46 10 10 -9 24
-17 31 -17 7 0 10 -7 7 -18 -5 -14 2 -22 26 -33 25 -10 32 -19 30 -36 -2 -14
4 -26 17 -33 31 -16 26 -47 -14 -83 -24 -23 -32 -36 -26 -46 13 -21 40 -6 56
32 21 51 38 61 82 50 35 -9 41 -7 80 24 37 30 45 32 65 22 29 -16 83 13 97 52
5 16 17 29 25 29 20 0 20 24 2 53 -18 28 -21 54 -11 91 5 18 2 53 -10 101
l-18 72 32 65 c36 75 53 93 99 103 28 6 32 4 32 -14 0 -12 6 -21 13 -21 17 0
61 58 77 101 13 36 14 36 81 42 89 8 145 36 154 79 5 21 4 33 -4 36 -35 12 24
74 115 121 41 21 79 52 114 92 28 33 68 68 88 78 21 11 51 34 68 53 34 37 104
132 104 142 0 16 -24 2 -59 -34z"/>
<path d="M2855 2768 c-6 -13 -20 -24 -32 -26 -13 -2 -20 -8 -17 -17 6 -14 -54
-75 -73 -75 -18 0 -50 -34 -55 -57 -3 -15 -13 -18 -58 -18 -30 1 -63 5 -72 9
-16 7 -18 2 -18 -43 l0 -51 -39 0 c-25 0 -41 -5 -45 -15 -7 -19 -21 -19 -40 0
-14 14 -19 12 -56 -26 -34 -36 -42 -40 -56 -28 -13 11 -17 10 -26 -4 -5 -10
-14 -15 -20 -11 -14 9 1 -36 18 -54 8 -7 14 -17 14 -21 0 -7 -19 -51 -39 -91
-4 -8 -7 -48 -6 -88 1 -68 -1 -75 -25 -94 l-25 -20 23 -15 c12 -9 22 -22 22
-29 0 -8 4 -14 9 -14 4 0 11 -24 14 -52 3 -29 13 -67 22 -85 9 -17 18 -56 21
-85 8 -83 35 -178 51 -178 17 0 83 -42 83 -53 0 -21 65 -97 82 -97 10 0 21 -7
24 -15 4 -8 16 -15 29 -15 12 0 30 -9 40 -20 10 -11 23 -20 29 -20 6 0 22 -9
36 -20 34 -27 64 -25 84 5 12 19 21 23 34 17 28 -14 77 -7 99 14 11 10 28 24
39 30 17 10 16 12 -15 28 -31 17 -32 18 -16 36 11 12 14 26 10 40 -8 25 11 51
31 43 9 -3 14 2 14 16 0 18 5 20 38 18 20 -1 42 -5 48 -9 5 -4 28 9 49 29 l39
36 -28 23 c-19 17 -25 30 -21 44 5 14 2 20 -10 20 -20 0 -45 23 -45 42 0 7 -9
19 -21 26 -18 12 -24 11 -43 -6 -34 -32 -63 -36 -83 -13 -22 27 -30 26 -53 -1
-24 -30 -37 -16 -41 41 -3 43 11 65 26 42 10 -18 49 -12 68 9 19 22 22 35 7
25 -5 -3 -18 -1 -29 4 -14 8 -22 7 -31 -4 -19 -23 -39 -18 -46 13 -4 15 -15
35 -26 46 -13 11 -17 24 -12 35 4 9 8 32 8 51 1 38 20 49 54 31 33 -17 37 17
8 58 -24 33 -24 37 -10 58 8 13 12 28 8 34 -3 6 2 19 12 30 13 15 25 18 51 13
31 -6 33 -5 33 23 0 16 5 34 12 41 9 9 7 12 -10 12 -22 0 -31 23 -13 34 11 7
1 139 -11 147 -15 10 8 46 40 64 27 14 27 15 5 21 -25 7 -30 33 -10 53 6 6 12
33 12 59 0 39 -4 49 -24 60 -31 16 -35 16 -46 -10z"/>
<path d="M2118 2234 c-12 -12 30 -137 55 -162 28 -27 42 0 43 83 0 41 -1 75
-3 75 -3 0 -11 -7 -19 -15 -21 -20 -31 -19 -39 5 -6 19 -25 26 -37 14z"/>
<path d="M3459 1722 c-13 -38 -62 -66 -104 -59 -24 4 -35 1 -39 -9 -3 -8 -12
-14 -19 -14 -8 0 -21 -7 -28 -16 -10 -12 -24 -15 -61 -10 l-47 7 -26 -51 c-29
-57 -50 -63 -84 -24 -14 16 -28 23 -38 20 -9 -4 -22 -1 -30 5 -11 10 -15 8
-20 -9 -3 -13 -13 -22 -25 -22 -17 0 -19 -5 -15 -27 3 -17 0 -34 -9 -44 -13
-15 -12 -17 11 -23 33 -8 31 -45 -3 -62 -12 -6 -29 -19 -36 -29 -8 -12 -19
-16 -31 -11 -10 3 -23 1 -31 -5 -9 -7 -18 -7 -33 0 -17 9 -22 8 -31 -10 -9
-16 -20 -20 -53 -19 -48 3 -89 -8 -81 -21 3 -5 14 -9 24 -9 12 0 22 -9 25 -23
4 -12 16 -27 28 -32 15 -7 22 -19 22 -37 -1 -18 5 -30 17 -34 21 -6 22 -16 7
-58 -8 -22 -8 -39 0 -59 10 -27 11 -27 36 -11 47 30 57 14 50 -76 -4 -53 -3
-80 4 -80 6 0 15 -9 21 -21 14 -25 0 -67 -31 -95 -14 -13 -16 -20 -8 -30 6 -7
9 -23 8 -36 -2 -13 0 -28 4 -35 4 -7 -1 -30 -13 -52 l-20 -40 26 -20 c36 -29
53 -27 122 14 45 26 61 42 65 62 3 16 10 46 14 68 6 28 16 43 33 51 47 22 115
37 173 38 33 1 56 5 54 11 -2 6 -18 9 -36 7 -65 -7 -79 37 -31 92 17 19 37 54
43 78 l13 43 62 0 62 0 0 122 c0 76 -4 124 -11 128 -17 11 0 105 25 145 44 67
57 100 77 197 21 103 19 137 -6 147 -11 4 -19 -3 -26 -22z"/>
<path d="M2365 1494 c14 -36 43 -89 65 -116 22 -28 40 -56 40 -63 0 -6 9 -20
20 -30 11 -10 27 -43 36 -74 36 -125 68 -208 94 -247 27 -41 48 -124 31 -124
-5 0 -12 18 -16 40 -4 22 -10 42 -14 45 -11 6 8 -92 25 -134 8 -18 14 -40 14
-48 0 -15 101 -156 120 -168 24 -15 43 89 26 142 -5 17 0 32 18 56 31 41 33
73 6 82 -22 7 -25 31 -10 105 10 54 2 65 -34 49 -22 -10 -29 -10 -40 2 -17 18
-28 76 -16 84 18 11 11 42 -12 57 -20 13 -21 18 -9 31 11 15 10 18 -13 27 -15
5 -31 21 -36 35 -6 15 -17 25 -30 25 -27 0 -27 36 0 45 11 3 20 9 20 13 -1 13
-72 52 -95 52 -14 0 -25 7 -28 20 -3 12 -14 20 -26 20 -18 0 -81 75 -81 97 0
10 -53 43 -69 43 -6 0 -1 -27 14 -66z"/>
<path d="M5530 825 c0 -118 1 -125 20 -125 19 0 20 7 20 125 0 118 -1 125 -20
125 -19 0 -20 -7 -20 -125z"/>
<path d="M5670 825 c0 -118 1 -125 20 -125 17 0 19 8 22 88 l3 87 69 -87 c38
-49 76 -88 85 -88 14 0 16 18 18 125 2 119 2 125 -17 125 -18 0 -20 -7 -20
-85 0 -47 -3 -85 -7 -85 -5 1 -37 39 -71 85 -41 55 -71 85 -83 85 -18 0 -19
-9 -19 -125z"/>
<path d="M5980 826 l0 -126 65 0 c109 0 155 40 155 134 0 36 -6 52 -29 78 -28
31 -33 33 -110 36 l-81 4 0 -126z m155 69 c17 -16 25 -35 25 -59 0 -71 -35
-106 -105 -106 l-35 0 0 95 0 95 45 0 c35 0 52 -6 70 -25z"/>
<path d="M6290 825 c0 -118 1 -125 20 -125 19 0 20 7 20 125 0 118 -1 125 -20
125 -19 0 -20 -7 -20 -125z"/>
<path d="M6506 942 c-5 -9 -37 -87 -71 -179 -24 -62 -24 -63 -4 -63 13 0 24
10 30 30 10 29 13 30 69 30 56 0 59 -1 69 -30 7 -21 17 -30 32 -30 16 0 20 4
15 18 -66 178 -92 232 -113 232 -12 0 -24 -4 -27 -8z m63 -139 c1 -9 -13 -13
-39 -13 -44 0 -46 3 -26 51 7 19 16 43 21 54 6 17 10 12 25 -30 10 -27 19 -56
19 -62z"/>
</g>
</svg>
