<?xml version="1.0" encoding="UTF-8"?>
<svg id="Layer_1" xmlns="http://www.w3.org/2000/svg" version="1.1" viewBox="0 0 1178.94 860.45">
  <!-- Generator: Adobe Illustrator 30.6.0, SVG Export Plug-In . SVG Version: 2.1.4 Build 109)  -->
  <defs>
    <style>
      .st0 {
        fill: #4b599b;
      }

      .st1 {
        fill: #5a68a5;
      }

      .st2 {
        fill: #63a4d4;
      }

      .st3 {
        fill: #f8f9fb;
      }

      .st4 {
        fill: #475698;
      }

      .st5 {
        fill: #4f67aa;
      }

      .st6 {
        fill: #5362a3;
      }

      .st7 {
        fill: #5166a8;
      }

      .st8 {
        fill: #fcfcfd;
      }

      .st9 {
        fill: #64a6d7;
      }

      .st10 {
        fill: #5060a1;
      }

      .st11 {
        fill: #5165a6;
      }

      .st12 {
        fill: #4f66aa;
      }

      .st13 {
        fill: #5a69a3;
      }

      .st14 {
        fill: #f3f4f9;
      }

      .st15 {
        fill: #5362a1;
      }

      .st16 {
        fill: #65a6d7;
      }

      .st17 {
        fill: #f9fafc;
      }

      .st18 {
        fill: #5160a0;
      }

      .st19 {
        fill: #4e5d9e;
      }

      .st20 {
        fill: #eef1f6;
      }

      .st21 {
        fill: #505f9f;
      }

      .st22 {
        fill: #5260a2;
      }

      .st23 {
        fill: #5064a6;
      }

      .st24 {
        fill: #5267a8;
      }

      .st25 {
        fill: #4d5c9d;
      }

      .st26 {
        fill: #5067ab;
      }

      .st27 {
        fill: #4a599c;
      }

      .st28 {
        fill: #5165a7;
      }

      .st29 {
        fill: #4b5a9c;
      }

      .st30 {
        fill: #3e71b3;
      }

      .st31 {
        fill: #f5f6fa;
      }

      .st32 {
        fill: #f5f7f9;
      }

      .st33 {
        fill: #4b5a9b;
      }

      .st34 {
        fill: #62a4d4;
      }

      .st35 {
        fill: #4d5c9f;
      }

      .st36 {
        fill: #f9fafb;
      }

      .st37 {
        fill: #4c5c9e;
      }

      .st38 {
        fill: #4e5fa0;
      }

      .st39 {
        fill: #fdfefe;
      }

      .st40 {
        fill: #fbfbfd;
      }

      .st41 {
        fill: #4f5fa0;
      }

      .st42 {
        fill: #fcfdfd;
      }
    </style>
  </defs>
  <g id="Generative_Object">
    <g>
      <g>
        <path class="st30" d="M254.05,418.59c-9.03,30.25-5.13,66.45,15.86,90.49,23.43,26.84,60.52,38.27,95.74,41l59.47.11,38.88-4.4c25.71-4.17,50.62-9.84,75.52-17.17,2.7-.8,5.06-1.04,5.99,2.54l-33.75,9.37c-33.07,7.97-66.05,13.05-100.11,15.9-41.02,3.44-88.4-1.33-125.41-19.26-34.52-16.72-53.48-53.16-52.1-91.33.83-22.99,6.32-44.75,14.38-66.11s17.84-39.49,30.3-59.53c13.24-21.3,27.39-41.16,43.89-60.05l22.25-25.48,28.6-28.58c20.07-20.06,42.76-36.42,67.21-51.03,26.41-14,54.3-23.19,83.78-28.12,20.89-3.5,41.42-3.11,61.85,2.04,46.56,11.74,83.36,39.32,99.88,85.21,4.94,13.73,7.96,27.54,9.21,42.16l2.03,23.65.03,53.16c.01,20.06-2.36,39.21-6.7,58.69-1.44-1.16-3.47-3.02-3.28-5.2l4.73-54.29-.09-52.17-1.73-18.63c-2.88-30.97-14.97-60.67-36.99-82.87-8.34-8.41-17.66-15.53-28.15-21.06-32.08-16.9-77.4-24.02-112.4-14.39-32.84,9.04-63.21,23.99-90.81,44-55.91,40.54-100.65,91.75-135.05,151.44-7.37,12.78-14.27,24.8-19.6,38.49-5.36,13.74-9.21,27.26-13.44,41.43Z"/>
        <g>
          <path class="st5" d="M597.85,543.5c54.42-35.83,120.11-88.72,155.39-142.57,6.86-10.48,12.27-21.15,15.44-33.08,2.46-9.25,2.03-18.48-3.31-26.41-3.99-5.93-10.66-8.45-17.95-8.52-11.68.47-21.91,4.83-32.63,9.76,14.9-11.91,29.75-22.82,45.84-32.87,20.77-12.98,49.61-24.27,72.83-15.87,4.06,1.57,7.05,3.9,9.29,7.85l55.46-15.29-41.79,59.87c4.44,47.92-15.03,98.2-45.19,135.43-9.17,11.31-18.12,21.74-28.76,31.67-38.54,35.96-80.78,60.33-130.31,78.5-34.72,12.74-70.24,20.44-107.08,24.67-26.22,3.01-51.43,4.49-78.41,2.37l51.7-27.53c27.35-14.56,53.2-30.66,79.49-47.97Z"/>
          <path class="st16" d="M595.59,498.97l-46.62-2.99c-24.91-2.22-48.56-6.33-73.28-10.08-36.2-5.48-71.37-12.97-105.84-25.07-12.55-4.41-24.21-8.88-35.75-15.14-6.83-3.7-11.96-8.13-17.79-13.44-3.58-3.25-5.93-10.78-.42-13.88,8.28-4.66,18.85-4.97,28.23-3.5l29.63,4.64c14.54,2.28,27.93,6.45,42.26,10.11,35.65,9.1,69.69,21,103.63,35.18l52.22,21.81,23.73,12.36Z"/>
          <path class="st5" d="M602.32,489.25c-7.09-.32-13.78-2.47-20.32-5.62l-12.45-5.99c-32.95-13.19-64.95-27.48-96.61-43.74-40.37-20.73-109.32-56.28-131.25-94.26-1.2-2.07-1.23-4.81-.19-6.97,2.31-4.84,13.08-4.61,20.62-2.29,9.06,2.79,17.75,5.75,26.19,10.39l55.24,30.38,31.41,20.28c16.92,10.93,33.13,21.88,49.21,34.06,17.63,13.36,34.5,26.48,51.26,40.8l26.9,22.97Z"/>
          <path class="st9" d="M504.58,394.36l-14.35-13.6-22.98-22.98-12.4-13.08-27.5-31.22c-8.37-9.5-15.61-19.33-22.33-30.06-2.88-4.59-5.21-9.91-5.37-15.33-.07-2.46,2.73-3.88,4.18-4.57,2.23-1.06,5.16-.14,7.43.95,29.44,14.11,58.83,42.34,80.78,66.98,25.85,29.02,50.37,58.54,73.97,89.47,15.59,20.44,30.34,40.61,44.37,62.32l-23.03-16.9-26.18-21.53c-19.68-16.18-38.14-32.94-56.59-50.43Z"/>
          <path class="st12" d="M599.79,423.28l18.36,52.68c-3.07-1.87-5.39-4.13-7.4-6.92l-23.36-32.29c-35.14-48.58-83.12-125.92-102.38-181.65-3.11-9.01-6.18-21.41.37-24.91,2.72-1.45,5.71-.88,8.46.95,12.87,8.53,27.6,29.51,36.59,43.62,19.87,31.19,38.21,71.78,52.29,106.48l17.06,42.05Z"/>
          <path class="st9" d="M627.25,471.25c-5.38-8.57-7.74-18.21-11.35-28.05-8.62-23.49-16.14-46.52-22.97-70.66-6.56-23.17-13.08-45.49-17.29-69.21-3.91-22.02-11.28-64.54-5.29-82.12,1.11-3.28,4.22-6.34,7.74-5.24,3.98,1.24,7.05,4.72,9.17,8.27,6.57,11.04,11.74,22.43,15.13,34.89l9.16,33.63,9.53,65.87c4.52,31.26,5.74,62.07,7.04,93.53.33,6.38.44,12-.86,19.08Z"/>
          <path class="st26" d="M590.68,510.24l-33.51,5.18c-45.02,5.07-89.65,9.26-135.12,9.13l-54.79-3.35c-14.14-.87-37.51-10.21-35.33-16.35,1.46-4.12,6.07-7.33,10.7-8.2,21.3-4.02,42.39-6.39,64.34-5.14l114.33,6.5,9.38,2.03c6.11-.71,11.37.73,17.24,1.66l32.21,5.09c3.66,1.08,6.97,1.56,10.55,3.45Z"/>
          <path class="st12" d="M653.68,410.01c-3.99,19.98-8.35,39.33-15.25,58.55-3.22-23.11-6.67-44.69-7.2-67.31l-1-42.7,4.14-59.83c.92-13.25,7.14-42.6,17.34-42.26,6.45.22,9.93,12.62,12.01,20.75,2.41,9.45,2.57,18.4,1.93,28.21l-3.34,51.52c-1.18,18.17-5.07,35.24-8.63,53.06Z"/>
        </g>
      </g>
      <path class="st7" d="M383.54,732.53l-51.25.12c-3.83,0-6.09-4.17-6.32-6.95-.27-3.31,1.38-8.3,5.55-8.34l51.53-.55c5-.05,7.69-5.16,7.71-9.29.03-4.3-2.72-9.21-7.68-9.27l-37.39-.48c-9.27-.12-17.15-7.85-20.12-15.52-3.55-9.19-1.61-19.26,4.74-26.16,4.58-4.97,10.1-8.49,17.06-8.48l51.52.04c4.36,0,7.03,4.69,6.73,8.15-.38,4.39-3.55,7.43-8.3,7.46l-50.72.27c-4.75.03-7.24,5.28-7.28,9.01-.05,4.22,2.43,9.49,7.38,9.56l36.42.48c8.99.12,17.59,6.27,20.96,14.47s2.85,16.33-1.72,23.87c-3.33,5.5-10.47,11.59-18.83,11.61Z"/>
      <path class="st7" d="M472.45,689.66l27.73,29.67c3,3.21,3.34,7.39,1.05,10.55-2.11,2.92-7.76,4.57-10.73,1.43l-31.87-33.68-14.89.12-.3,29.15c-.04,4.09-4.23,5.95-7.59,5.92s-7.62-2.4-7.63-6.69l-.15-70.6c0-4.54,3.14-7.66,7.07-8.08,3.65-.39,8.33,2.05,8.37,6.43l.27,28.64,15.35-.1,13.01-14.1,16.59-17.53c2.99-3.15,7.07-4.87,10.98-2.04,3.2,2.33,4.02,7.37,1.28,11.24l-28.53,29.65Z"/>
      <path class="st2" d="M568.08,668.44l-33.76,60.39c-2.1,3.76-6.32,5.08-9.64,3.62-3.42-1.5-6.15-6.21-3.99-10.13l38.28-69.41c2.02-3.66,5.08-5.66,8.72-5.74,3.63-.08,7.2,1.54,9.24,5.19l38.32,68.63c2.33,4.18,1.08,8.53-2.42,10.77-3.73,2.39-8.57.99-10.86-3.09l-33.89-60.23Z"/>
      <path class="st34" d="M652.31,724.15c.02,5.04-2.87,8.22-6.87,8.73s-8.75-2.05-8.76-6.93l-.1-70.31c0-4.63,2.7-7.67,6.61-8.19s8.89,1.72,8.9,6.55l.22,70.14Z"/>
      <path class="st28" d="M698,731.13c-8.77,3.34-18.7,2.05-25.83-3.28l2.71-5.75c8.86,6.01,22.34,5.61,22.46-1.09.14-8.59-26.65-2.77-23.87-20.54,1.8-11.53,18.85-13.17,29.82-7.03-.35,2.48-1.23,4.31-2.66,6.25-5.27-2.83-11.02-4-16.53-2.05-2.24.79-3.33,3.13-3.23,5.05.11,2.17,1.85,3.65,4.19,4.26l10.53,2.77c4.99,1.31,8.68,4.47,9.23,9.03.61,5.04-1.42,10.34-6.81,12.39Z"/>
      <path class="st23" d="M807.88,722.08c2.1.49,3.63,1.59,5.76,2.91-1.81,5.26-7.29,7.73-12.91,7.86-8.88.21-16.21-5.49-17.07-14.28-.51-5.25.89-10.18,4.24-13.57,3.57-3.62,8.21-5.49,13.61-5.19,5.36.3,10.36,2.85,12.19,7.81l-5.69,3.38c-2.26-4.21-6.39-5.29-10.38-4.21-4.32,1.17-6.75,5-6.65,9.87.08,4.18,2.45,7.9,5.84,9.03,4.06,1.36,8.34.77,11.06-3.62Z"/>
      <circle class="st24" cx="568.12" cy="721.83" r="10.85"/>
      <path class="st29" d="M805.46,784.84l-.65-12.81c-.13-2.56-3.72-3.1-5.69-2.58-2.19.58-3.84,2.55-3.89,5.2l-.18,10.08c-.45.55-2.55.57-3.16.02l-.1-17.37c0-.93,1.55-1.24,2.08-.93.43.25.98.66,1.62,1.7,3.68-2.59,8.53-2.76,11.91.86,3.37-3.23,8.64-3.95,12.47-.91,1.38,1.09,1.92,3.37,1.92,5.01l.06,11.73c-.52.33-2.25.5-3.11.04l-.2-10.31c-.06-2.82-1.43-4.91-4.11-5.29-2.17-.31-5.42,1.15-5.51,4.08l-.35,11.35c-.18.38-2.25.76-3.12.13Z"/>
      <path class="st25" d="M399.27,767.13c.44-1.2,2.68-1,3.06.21l-6.21,17.11c-.83.97-3.28,1.1-3.72-.02l-5.14-13.25-4.94,13.1c-.38,1.02-3.18,1.49-3.62.3l-6.51-17.46c.2-.67,1.66-.91,2.48-.57.71.3,1.16,1.16,1.53,2.2l4.2,11.79,4.95-13.23c.86-1.18,2.58-1.31,3.75-.43l5.11,14,5.06-13.75Z"/>
      <path class="st21" d="M593.19,766.66c.18-.48,2.38-.28,2.83.2l-5.6,15.79c-.42,1.19-.83,1.93-1.47,2.28-.73.4-2.72.44-2.99-.3l-4.98-13.48-4.95,13.14c-.37.97-3.31,1.5-3.73.37l-6.7-17.87c.65-.63,2.89-.61,3.11-.05l5.4,13.78,5.31-13.68c.33-.86,2.81-.6,3.14.31l5.05,14,5.57-14.5Z"/>
      <path class="st41" d="M560.62,784.24c-6.5,2.87-16.08.08-14.97-3.01.57-1.59,1.62-1.21,2.78-.52,4.95,2.94,11.92,1.96,12.22-1.86.1-1.3-.74-2.79-2.35-3.28l-7.81-2.42c-2.69-.83-4.33-2.99-4.54-5.42-.23-2.66,1.1-5.39,3.91-6.6,4.24-1.83,9.14-1.31,13.19.92-.22,1.09-.32,2.14-1.28,3.03-3.31-2.17-7.2-2.76-10.58-1.06-1.23.62-1.73,2.01-1.74,3.01-.02,1.36.81,2.64,2.45,3.11l7.33,2.12c2.82.82,4.56,2.76,4.79,5.24s-.49,5.43-3.4,6.72Z"/>
      <path class="st33" d="M534.54,766.82l-9.63,21.72c-1.43,3.22-4.84,4.18-8.05,3.14-1.04-.34-1.93-.52-1.99-1.59-.19-3.54,3.92,0,6.24-1.63.93-.65,2.31-2.58,1.63-4.19l-7.44-17.51c1.47-.51,2.4-.31,3.48-.15l6.13,13.92,6.23-13.63c.37-.8,2.66-.73,3.39-.08Z"/>
      <path class="st19" d="M843.68,766.94l-10.02,22.42c-1.6,3.58-7.18,3.43-9.75,1.04.22-.96.61-1.71,1.29-2.4,1.76,1.12,3.8,1.44,5.26.22.98-.82,2.36-2.6,1.57-4.43l-7.27-16.74c.11-.8,2.92-1.15,3.39-.13l6.17,13.57,5.34-12.21c.53-1.22,1.4-2.73,4.01-1.34Z"/>
      <path class="st22" d="M717.34,770.2c-3.04-2.05-6.33-.72-7.98,1.57-1.7,2.35-1.76,5.53.02,7.99,3.79,5.26,8.96.63,10.65.36.58-.09,2.06.83,1.76,1.35-3.05,5.03-10.09,4.96-14.06,1.44-4.18-3.7-4.13-10.6-.01-14.32,3.9-3.52,11.12-3.41,14.14,1.38.11.61-1.36,1.34-1.93,1.42-.68.09-1.58-.53-2.58-1.2Z"/>
      <path class="st0" d="M613.31,769.3l-.3,15.48c-.8.3-1.73.37-3.27.24l-.33-15.48-2.08-.57c-.59-.16-1.16-1.67-.66-1.89l2.41-1.04c1.05-1.7.73-4.22,1.86-5.34,2.8-2.79,9.24-2.37,8.21.22-.71,1.78-3.64.37-5.02,1.38-.84.61-1.32,2.09-.98,3.88l4.69.62c.68.09.37,2.32-.16,2.34l-4.35.17Z"/>
      <path class="st41" d="M625.4,779.74c0,2.1,1.79,3,3.52,2.47.63-.2,1.66-.38,1.99-.09.36.31.69,1.24.67,1.67-.14,2.54-9.03,2.11-9.16-1.56l-.47-12.81-2.63-.41c-.68-.11-.73-2.29.25-2.42l1.85-.23c1.47-.18-.72-4.03,1.82-4.32,1.52-.17,2.57.19,2.12,2.29-.1.47-.12,1.51.05,1.79.53.9,3.22-.1,4.84.47.47.17.41,1.69.08,2.3-1.36.53-3.12.26-4.92.28v10.56Z"/>
      <rect class="st1" x="661.32" y="760.45" width="3.56" height="24.66"/>
      <path class="st15" d="M429.95,784.6c-.03.85-2.82.76-3.13.16l.2-17.98c.69-1.11,3.19.6,3.62,1.4,1.87-.87,3.72-2.27,5.94-1.96.4,1.18.37,2.24.21,3.33-3.8-.38-6.34,2.09-6.48,5.81l-.36,9.23Z"/>
      <rect class="st4" x="599.78" y="766.35" width="3.4" height="18.73" transform="translate(-1.02 .79)"/>
      <circle class="st13" cx="601.43" cy="760.67" r="2.28"/>
      <g>
        <path class="st28" d="M744.58,715.41c.33,6.79-2.31,12.62-7.3,15.33-5.75,3.12-12.42,3.1-18.04-1.7l-.3,14.6c-2.51.56-4.67.63-7.29-.04l.09-43.32,6.71.06c.13,1.35,0,2.25.7,3.68,4.19-4.74,10.41-5.26,16.31-2.92,5.17,2.05,8.8,7.5,9.13,14.32Z"/>
        <path class="st39" d="M737.11,716.21c.04,6.14-3.96,10.01-9.1,10.09-5.71.08-9.34-4.56-9.09-10.44.23-5.58,3.75-9.58,9.13-9.52,4.99.05,9.03,4.04,9.07,9.88Z"/>
      </g>
      <g>
        <path class="st11" d="M831.43,725.97c4.49,1.09,8.4-.04,11.65-2.91,1.47,1.35,2.81,2.75,3.93,4.75-5.23,5.2-13.13,6.35-20.03,3.69-9.04-3.5-12.21-13.51-8.54-22.09,3.59-8.38,14.09-12.27,22.7-7.74,6.13,3.23,8.86,10.32,7.72,16.97l-24.3.14c.63,3.86,3.24,6.3,6.87,7.18Z"/>
        <path class="st42" d="M841.98,713.51l-17.5.07c.75-4.73,4.43-7.34,8.38-7.5,4.34-.18,8.21,1.78,9.12,7.43Z"/>
      </g>
      <g>
        <path class="st23" d="M757.44,732.65c-5.44-.85-8.68-4.71-8.7-9.28-.02-5,3.56-9.3,8.9-9.39l11.68-.21c.81-3.74-1.94-7.09-6.01-7.47s-7.58.98-10.86,3.16l-2.63-5.77c5.41-3.62,12.17-4.89,18.58-3.15,5.21,1.41,8.56,5.9,8.58,11.34l.05,20.38-6.39-.1c-.62-.01-.91-1.86-1.07-2.91-3.15,3.16-7.29,4.17-12.11,3.41Z"/>
        <path class="st36" d="M769.35,718.75c.81,3.1-.25,4.98-1.89,6.38-1.79,1.52-3.9,2.1-6.47,2.02-2.72-.08-4.77-1.4-4.95-3.78-.18-2.4,1.29-4.49,4.14-4.52l9.17-.1Z"/>
      </g>
      <g>
        <path class="st10" d="M475.9,783.09c-3.04,2.54-6.42,2.77-9.66,1.64s-5.45-4.57-5.62-8.52,1.54-7.64,5-9.16c3.27-1.44,7.11-1.25,10.29,1.45l.23-9.57,3.29.06.12,26.11c-1.77.18-2.61-.34-3.65-1.99Z"/>
        <circle class="st42" cx="470.19" cy="775.69" r="6.38"/>
      </g>
      <g>
        <path class="st35" d="M514.01,775.79c.01,4.27-2.2,7.57-5.38,8.86-3.51,1.42-7.66.9-10.08-2.1-.37,1.19-.56,1.96-.91,2.33-.61.65-2.72.34-2.72-.65l.08-25.37,3.31-.04.16,9.76c3.11-2.39,6.69-3.1,10.15-1.68,3.13,1.28,5.37,4.58,5.38,8.89Z"/>
        <circle class="st8" cx="504.53" cy="775.73" r="6.38"/>
      </g>
      <g>
        <path class="st6" d="M760.6,782.59c-2.34,2.88-5.94,3.43-9.84,2.02-2.69-.97-5.22-3.95-5.56-7.7-.38-4.15,1.37-7.95,4.8-9.72s7.42-1.21,10.83,1.46l.15-9.79c1.18-.16,1.96-.15,3.34.13v25.2c0,.9-1.52,1.25-2.15.95-.47-.22-1.21-.47-1.57-2.53Z"/>
        <circle class="st8" cx="754.87" cy="775.68" r="6.37"/>
      </g>
      <g>
        <path class="st27" d="M698.68,782.85c-1.82-5.13-3.32-4.12-13.89-3.58-1.72.09-1.47,3.7-3.71,5.7-.66.59-3.12-.06-2.82-.73l10.33-23.32c.35-.79,3.11-.75,3.94-.2l10.5,23.58c.28.63-2.07,1.09-2.7.75-.58-.32-1.33-1.26-1.66-2.21Z"/>
        <polygon class="st32" points="695.74 776.03 685.45 776.14 690.69 764.17 695.74 776.03"/>
      </g>
      <g>
        <path class="st18" d="M651.7,779.01l-12.17.2c-1.9.03-2.14,4.68-3.78,5.63-1,.58-2.82.45-3.19-.33l10.66-23.6c.36-.81,3.53-.96,3.88-.17l10.68,23.97c-1.07.67-2.92.65-3.55-.11-1.22-1.49-1.53-3.21-2.53-5.59Z"/>
        <polygon class="st3" points="650.23 775.93 640.04 776.11 645.14 764.41 650.23 775.93"/>
      </g>
      <g>
        <path class="st37" d="M332.49,777.5l-.07,7.45c-1.34.23-2.18.27-3.58-.03l-.02-24.26,11.14-.1c4.95-.04,8.13,3.02,8.54,7.3.46,4.73-2.3,9.23-7.36,9.38l-8.65.26Z"/>
        <path class="st40" d="M340.52,774.15l-8.06.27-.03-10.87h6.9c3.21,0,5.25,1.71,5.64,4.4.42,2.9-1.11,6.09-4.43,6.2Z"/>
      </g>
      <g>
        <path class="st19" d="M772.56,776.78c-.35,2.36,2.06,4.4,3.88,5.1,2.85,1.09,5.27.06,7.65-1.52.51-.32,1.81,1.24,1.7,1.83-.67,3.66-11.85,5.3-15.64-1.36-2.69-4.73-1.34-11.56,3.72-13.79,3.28-1.45,6.94-.98,9.57.64,2.9,1.78,4.05,5.58,3.69,9.2l-14.57-.1Z"/>
        <path class="st20" d="M783.85,774.45h-11.51c.18-3.15,2.53-5.08,5.05-5.32,3.05-.29,5.93,1.34,6.46,5.32Z"/>
      </g>
      <g>
        <path class="st19" d="M411.83,781.99c6.04,1.55,7.66-4.28,9.18.62-3.3,3.62-9.44,3.64-13.44.81-2.96-2.09-3.85-5.7-3.55-8.95s2.09-6.26,5.47-7.59,6.92-.78,9.3,1.02c2.73,2.06,3.89,5.54,3.27,8.95l-14.5.03c.33,2.9,2.21,4.58,4.28,5.11Z"/>
        <path class="st31" d="M418.95,774.3l-11.38.07c.17-2.89,2.56-5.15,5.28-5.28s5.47,1.45,6.1,5.21Z"/>
      </g>
      <g>
        <path class="st29" d="M729.58,774.51l7.58-.18c.54-1.01.23-2.55-.44-3.54-1.5-2.23-6.03-2.16-9.95.12-.8-.78-1.12-1.57-1.38-2.58,3.64-2.23,8.12-2.93,12.19-1.27,2.03.83,3.21,3.14,3.2,5.34l-.05,12.35c-.57.92-3.12.11-3.51-1.44-2.57,2.07-5.12,2.51-8.14,1.76-2.69-.67-4.35-2.8-4.34-5.32,0-2.35,1.68-5.15,4.84-5.23Z"/>
        <path class="st17" d="M737.06,777.2c1.13.62.07,3.39-.75,3.99-2.77,2.01-6.45,1.7-7.7-.11-.79-1.15-.68-3.27.94-3.79,2.12-.68,5.39-1.23,7.51-.09Z"/>
      </g>
      <g>
        <circle class="st38" cx="361.21" cy="775.78" r="9.71"/>
        <circle class="st42" cx="361.18" cy="775.73" r="6.43"/>
      </g>
      <g>
        <path class="st18" d="M442.75,776.88c.26,2.81,2.4,4.37,4.1,5.05,4.59,1.85,9.14-4,9.21.29.02,1.12-.99,1.68-2.06,2.15-5.23,2.29-11.32.58-13.66-4.07-2.63-5.22-.46-12.35,5.27-13.68,3.41-.79,6.56-.34,9.03,1.74,2.08,1.76,3.21,5.04,2.78,8.42l-14.67.1Z"/>
        <path class="st14" d="M454.16,774.29l-11.39.14c.15-3.14,2.65-5.12,5.13-5.33,3.04-.26,5.64,1.37,6.25,5.19Z"/>
      </g>
    </g>
  </g>
</svg>